<?xml version="1.0" encoding="UTF-8" standalone="no"?>
<svg
   xmlns:dc="http://purl.org/dc/elements/1.1/"
   xmlns:cc="http://creativecommons.org/ns#"
   xmlns:rdf="http://www.w3.org/1999/02/22-rdf-syntax-ns#"
   xmlns:svg="http://www.w3.org/2000/svg"
   xmlns="http://www.w3.org/2000/svg"
   xmlns:sodipodi="http://sodipodi.sourceforge.net/DTD/sodipodi-0.dtd"
   xmlns:inkscape="http://www.inkscape.org/namespaces/inkscape"
   width="32"
   height="32"
   viewBox="0 0 8.4666659 8.4666659"
   version="1.1"
   id="svg8"
   inkscape:version="1.0.1 (3bc2e813f5, 2020-09-07)"
   sodipodi:docname="grouptabs-logo.svg"
   inkscape:export-filename="grouptabs-logo-64.png"
   inkscape:export-xdpi="192"
   inkscape:export-ydpi="192">
  <defs
     id="defs2" />
  <sodipodi:namedview
     id="base"
     pagecolor="#ffffff"
     bordercolor="#666666"
     borderopacity="1.0"
     inkscape:pageopacity="0.0"
     inkscape:pageshadow="2"
     inkscape:zoom="10.286441"
     inkscape:cx="-2.7455803"
     inkscape:cy="18.733356"
     inkscape:document-units="px"
     inkscape:current-layer="layer1"
     inkscape:document-rotation="0"
     showgrid="true"
     inkscape:showpageshadow="false"
     units="px"
     inkscape:window-width="1600"
     inkscape:window-height="873"
     inkscape:window-x="0"
     inkscape:window-y="27"
     inkscape:window-maximized="1">
    <inkscape:grid
       type="xygrid"
       id="grid833"
       empspacing="4" />
  </sodipodi:namedview>
  <metadata
     id="metadata5">
    <rdf:RDF>
      <cc:Work
         rdf:about="">
        <dc:format>image/svg+xml</dc:format>
        <dc:type
           rdf:resource="http://purl.org/dc/dcmitype/StillImage" />
        <dc:title />
      </cc:Work>
    </rdf:RDF>
  </metadata>
  <g
     inkscape:label="Layer 1"
     inkscape:groupmode="layer"
     id="layer1">
    <path
       id="rect833"
       style="fill:#000000;fill-opacity:1;stroke-width:0.247474;stroke-linejoin:bevel;paint-order:stroke markers fill"
       d="M 16 0 C 7.1359998 -2.3684758e-15 9.9031899e-17 7.1359998 0 16 C -2.3684758e-15 24.864001 7.1359998 32 16 32 C 24.864001 32 32 24.864001 32 16 C 32 7.1359998 24.864001 9.9031899e-17 16 0 z M 16.402344 5.6738281 C 17.848286 5.6738281 19.090272 5.9392483 20.128906 6.46875 C 21.167541 6.9982498 22.01237 7.5994269 22.664062 8.2714844 L 20.3125 11.142578 C 19.803365 10.69454 19.26359 10.317199 18.693359 10.011719 C 18.123129 9.706238 17.410034 9.5546875 16.554688 9.5546875 C 15.780803 9.5546875 15.067708 9.7062399 14.416016 10.011719 C 13.784689 10.296835 13.234029 10.71576 12.765625 11.265625 C 12.297221 11.81549 11.930766 12.487 11.666016 13.28125 C 11.421628 14.0755 11.300781 14.970847 11.300781 15.96875 C 11.300781 18.025654 11.757386 19.625163 12.673828 20.765625 C 13.610636 21.885721 15.01701 22.445313 16.890625 22.445312 C 17.297933 22.445312 17.695089 22.394797 18.082031 22.292969 C 18.468974 22.19114 18.784913 22.03764 19.029297 21.833984 L 19 19 L 16 19 L 16 15 L 23 15 L 23 23.912109 C 22.307577 24.584167 21.390461 25.154643 20.25 25.623047 C 19.109539 26.091451 17.836852 26.326172 16.431641 26.326172 C 15.06716 26.326172 13.785542 26.111265 12.583984 25.683594 C 11.402792 25.235555 10.373758 24.583862 9.4980469 23.728516 C 8.6223352 22.87317 7.9290564 21.813435 7.4199219 20.550781 C 6.9311526 19.267762 6.6875 17.793008 6.6875 16.123047 C 6.6875 14.473451 6.9420362 13.005675 7.4511719 11.722656 C 7.9603064 10.419271 8.6516324 9.3199051 9.5273438 8.4238281 C 10.423421 7.5277516 11.463339 6.8453568 12.644531 6.3769531 C 13.825724 5.9085494 15.078594 5.6738281 16.402344 5.6738281 z "
       transform="scale(0.26458331)" />
  </g>
</svg>
