<?xml version="1.0" encoding="UTF-8" standalone="no"?>
<svg
   xmlns:dc="http://purl.org/dc/elements/1.1/"
   xmlns:cc="http://creativecommons.org/ns#"
   xmlns:rdf="http://www.w3.org/1999/02/22-rdf-syntax-ns#"
   xmlns:svg="http://www.w3.org/2000/svg"
   xmlns="http://www.w3.org/2000/svg"
   xmlns:sodipodi="http://sodipodi.sourceforge.net/DTD/sodipodi-0.dtd"
   xmlns:inkscape="http://www.inkscape.org/namespaces/inkscape"
   width="32"
   height="32"
   viewBox="0 0 8.4666659 8.4666659"
   version="1.1"
   id="svg8"
   inkscape:version="1.0.1 (3bc2e813f5, 2020-09-07)"
   sodipodi:docname="grouptabs-logo.svg"
   inkscape:export-filename="grouptabs-logo-64.png"
   inkscape:export-xdpi="192"
   inkscape:export-ydpi="192">
  <defs
     id="defs2" />
  <sodipodi:namedview
     id="base"
     pagecolor="#ffffff"
     bordercolor="#666666"
     borderopacity="1.0"
     inkscape:pageopacity="0.0"
     inkscape:pageshadow="2"
     inkscape:zoom="10.286441"
     inkscape:cx="-2.7455803"
     inkscape:cy="18.733356"
     inkscape:document-units="px"
     inkscape:current-layer="layer1"
     inkscape:document-rotation="0"
     showgrid="true"
     inkscape:showpageshadow="false"
     units="px"
     inkscape:window-width="1600"
     inkscape:window-height="873"
     inkscape:window-x="0"
     inkscape:window-y="27"
     inkscape:window-maximized="1">
    <inkscape:grid
       type="xygrid"
       id="grid833"
       empspacing="4" />
  </sodipodi:namedview>
  <metadata
     id="metadata5">
    <rdf:RDF>
      <cc:Work
         rdf:about="">
        <dc:format>image/svg+xml</dc:format>
        <dc:type
           rdf:resource="http://purl.org/dc/dcmitype/StillImage" />
        <dc:title />
      </cc:Work>
    </rdf:RDF>
  </metadata>
  <g
     inkscape:label="Layer 1"
     inkscape:groupmode="layer"
     id="layer1">
    <rect
       style="fill:#ff4444;stroke-width:0.0654776;stroke-linejoin:bevel;paint-order:stroke markers fill;fill-opacity:1"
       id="rect833"
       width="8.4666662"
       height="8.4666662"
       x="-2.7755576e-17"
       y="0" />
    <g
       aria-label="G"
       id="text837"
       style="font-size:7.05555px;line-height:1.25;font-family:'Open Sans';-inkscape-font-specification:'Open Sans';letter-spacing:0px;stroke-width:0.264583"
       transform="matrix(1.1455535,0,0,1.1455535,-0.65754012,-0.61617666)">
      <path
         d="m 4.369256,6.6181091 c -0.3151479,0 -0.611481,-0.049389 -0.8889993,-0.1481666 C 3.2074421,6.3664611 2.9699052,6.2159427 2.7676461,6.0183873 2.565387,5.8208319 2.4054612,5.5762395 2.2878687,5.2846101 2.1749799,4.988277 2.1185355,4.6472588 2.1185355,4.2615554 c 0,-0.3809997 0.058796,-0.7196661 0.1763888,-1.0159992 C 2.4125168,2.9445193 2.5724426,2.6905195 2.7747017,2.4835567 2.9816645,2.2765939 3.2215532,2.11902 3.4943678,2.0108349 3.7671824,1.9026498 4.05646,1.8485572 4.3622005,1.8485572 c 0.3339627,0 0.6208884,0.061148 0.8607771,0.1834443 0.2398887,0.1222962 0.4350922,0.2610554 0.5856106,0.4162775 L 5.2653109,3.1115007 C 5.1477184,3.0080193 5.0230703,2.9210008 4.8913667,2.8504453 4.7596631,2.7798898 4.5950336,2.7446121 4.3974782,2.7446121 c -0.1787406,0 -0.3433701,0.035278 -0.4938885,0.1058332 C 3.757775,2.9162973 3.6307751,3.0127232 3.52259,3.1397229 3.4144049,3.2667228 3.3297383,3.4219449 3.2685902,3.6053892 c -0.056445,0.1834443 -0.084667,0.3904071 -0.084667,0.6208884 0,0.4750737 0.1058333,0.8443142 0.3174998,1.1077214 0.2163702,0.2587035 0.5409255,0.3880552 0.9736659,0.3880552 0.094074,0 0.1857961,-0.011759 0.2751664,-0.035278 0.08937,-0.023519 0.1622777,-0.058796 0.2187221,-0.1058333 L 4.9623374,4.9262296 H 4.269441 V 4.0023677 H 5.8861993 V 6.0607206 C 5.7262735,6.2159427 5.514607,6.3476463 5.2511998,6.4558314 4.9877926,6.5640165 4.6938113,6.6181091 4.369256,6.6181091 Z"
         style="font-style:normal;font-variant:normal;font-weight:bold;font-stretch:normal;font-size:7.05555px;font-family:'Source Sans Pro';-inkscape-font-specification:'Source Sans Pro Bold';fill:#ffffff;fill-opacity:1;stroke-width:0.264583"
         id="path833"
         sodipodi:nodetypes="scscsccsssccsscscscssccccccss" />
    </g>
  </g>
</svg>
